<!-- Generated by IcoMoon.io -->
<svg version="1.1" xmlns="http://www.w3.org/2000/svg" width="448" height="448" viewBox="0 0 448 448">
<title></title>
<g id="icomoon-ignore">
    <line stroke-width="1" x1="16" y1="0" x2="16" y2="448" stroke="#449FDB" opacity="0.3"></line>
    <line stroke-width="1" x1="32" y1="0" x2="32" y2="448" stroke="#449FDB" opacity="1"></line>
    <line stroke-width="1" x1="48" y1="0" x2="48" y2="448" stroke="#449FDB" opacity="0.3"></line>
    <line stroke-width="1" x1="64" y1="0" x2="64" y2="448" stroke="#449FDB" opacity="1"></line>
    <line stroke-width="1" x1="80" y1="0" x2="80" y2="448" stroke="#449FDB" opacity="0.3"></line>
    <line stroke-width="1" x1="96" y1="0" x2="96" y2="448" stroke="#449FDB" opacity="1"></line>
    <line stroke-width="1" x1="112" y1="0" x2="112" y2="448" stroke="#449FDB" opacity="0.3"></line>
    <line stroke-width="1" x1="128" y1="0" x2="128" y2="448" stroke="#449FDB" opacity="1"></line>
    <line stroke-width="1" x1="144" y1="0" x2="144" y2="448" stroke="#449FDB" opacity="0.3"></line>
    <line stroke-width="1" x1="160" y1="0" x2="160" y2="448" stroke="#449FDB" opacity="1"></line>
    <line stroke-width="1" x1="176" y1="0" x2="176" y2="448" stroke="#449FDB" opacity="0.3"></line>
    <line stroke-width="1" x1="192" y1="0" x2="192" y2="448" stroke="#449FDB" opacity="1"></line>
    <line stroke-width="1" x1="208" y1="0" x2="208" y2="448" stroke="#449FDB" opacity="0.3"></line>
    <line stroke-width="1" x1="224" y1="0" x2="224" y2="448" stroke="#449FDB" opacity="1"></line>
    <line stroke-width="1" x1="240" y1="0" x2="240" y2="448" stroke="#449FDB" opacity="0.3"></line>
    <line stroke-width="1" x1="256" y1="0" x2="256" y2="448" stroke="#449FDB" opacity="1"></line>
    <line stroke-width="1" x1="272" y1="0" x2="272" y2="448" stroke="#449FDB" opacity="0.3"></line>
    <line stroke-width="1" x1="288" y1="0" x2="288" y2="448" stroke="#449FDB" opacity="1"></line>
    <line stroke-width="1" x1="304" y1="0" x2="304" y2="448" stroke="#449FDB" opacity="0.3"></line>
    <line stroke-width="1" x1="320" y1="0" x2="320" y2="448" stroke="#449FDB" opacity="1"></line>
    <line stroke-width="1" x1="336" y1="0" x2="336" y2="448" stroke="#449FDB" opacity="0.3"></line>
    <line stroke-width="1" x1="352" y1="0" x2="352" y2="448" stroke="#449FDB" opacity="1"></line>
    <line stroke-width="1" x1="368" y1="0" x2="368" y2="448" stroke="#449FDB" opacity="0.3"></line>
    <line stroke-width="1" x1="384" y1="0" x2="384" y2="448" stroke="#449FDB" opacity="1"></line>
    <line stroke-width="1" x1="400" y1="0" x2="400" y2="448" stroke="#449FDB" opacity="0.3"></line>
    <line stroke-width="1" x1="416" y1="0" x2="416" y2="448" stroke="#449FDB" opacity="1"></line>
    <line stroke-width="1" x1="432" y1="0" x2="432" y2="448" stroke="#449FDB" opacity="0.3"></line>
    <line stroke-width="1" x1="0" y1="16" x2="448" y2="16" stroke="#449FDB" opacity="0.3"></line>
    <line stroke-width="1" x1="0" y1="32" x2="448" y2="32" stroke="#449FDB" opacity="1"></line>
    <line stroke-width="1" x1="0" y1="48" x2="448" y2="48" stroke="#449FDB" opacity="0.3"></line>
    <line stroke-width="1" x1="0" y1="64" x2="448" y2="64" stroke="#449FDB" opacity="1"></line>
    <line stroke-width="1" x1="0" y1="80" x2="448" y2="80" stroke="#449FDB" opacity="0.3"></line>
    <line stroke-width="1" x1="0" y1="96" x2="448" y2="96" stroke="#449FDB" opacity="1"></line>
    <line stroke-width="1" x1="0" y1="112" x2="448" y2="112" stroke="#449FDB" opacity="0.3"></line>
    <line stroke-width="1" x1="0" y1="128" x2="448" y2="128" stroke="#449FDB" opacity="1"></line>
    <line stroke-width="1" x1="0" y1="144" x2="448" y2="144" stroke="#449FDB" opacity="0.3"></line>
    <line stroke-width="1" x1="0" y1="160" x2="448" y2="160" stroke="#449FDB" opacity="1"></line>
    <line stroke-width="1" x1="0" y1="176" x2="448" y2="176" stroke="#449FDB" opacity="0.3"></line>
    <line stroke-width="1" x1="0" y1="192" x2="448" y2="192" stroke="#449FDB" opacity="1"></line>
    <line stroke-width="1" x1="0" y1="208" x2="448" y2="208" stroke="#449FDB" opacity="0.3"></line>
    <line stroke-width="1" x1="0" y1="224" x2="448" y2="224" stroke="#449FDB" opacity="1"></line>
    <line stroke-width="1" x1="0" y1="240" x2="448" y2="240" stroke="#449FDB" opacity="0.3"></line>
    <line stroke-width="1" x1="0" y1="256" x2="448" y2="256" stroke="#449FDB" opacity="1"></line>
    <line stroke-width="1" x1="0" y1="272" x2="448" y2="272" stroke="#449FDB" opacity="0.3"></line>
    <line stroke-width="1" x1="0" y1="288" x2="448" y2="288" stroke="#449FDB" opacity="1"></line>
    <line stroke-width="1" x1="0" y1="304" x2="448" y2="304" stroke="#449FDB" opacity="0.3"></line>
    <line stroke-width="1" x1="0" y1="320" x2="448" y2="320" stroke="#449FDB" opacity="1"></line>
    <line stroke-width="1" x1="0" y1="336" x2="448" y2="336" stroke="#449FDB" opacity="0.3"></line>
    <line stroke-width="1" x1="0" y1="352" x2="448" y2="352" stroke="#449FDB" opacity="1"></line>
    <line stroke-width="1" x1="0" y1="368" x2="448" y2="368" stroke="#449FDB" opacity="0.3"></line>
    <line stroke-width="1" x1="0" y1="384" x2="448" y2="384" stroke="#449FDB" opacity="1"></line>
    <line stroke-width="1" x1="0" y1="400" x2="448" y2="400" stroke="#449FDB" opacity="0.3"></line>
    <line stroke-width="1" x1="0" y1="416" x2="448" y2="416" stroke="#449FDB" opacity="1"></line>
    <line stroke-width="1" x1="0" y1="432" x2="448" y2="432" stroke="#449FDB" opacity="0.3"></line>
</g>
<path d="M222.933 203.664c-48.712 0-92.97 5.856-125.734 15.4v81.523c32.765 9.544 77.023 15.4 125.734 15.4 55.752 0 105.665-7.671 139.192-19.762v-72.797c-33.527-12.092-83.44-19.764-139.192-19.764zM273.457 219.305c5.116 0.066 10.849 2.224 16.582 8.501 0 0 13.729 25.51 0 38.264 0 0-22.464 17.857-34.944 0 0 0-14.976-14.031 0-38.264 0 0 7.887-8.636 18.362-8.501zM191.537 219.618c8.885-0.054 19.381 3.577 23.727 19.313 0 0 8.568 34.524-24.613 36.472 0 0-42.311-8.149-13.538-52.822 0 0 6.585-2.916 14.425-2.963z"></path>
<path d="M412.337 269.903l-5.71-11.829c0.029-0.449 0.053-0.899 0.053-1.35 0-13.41-13.944-25.769-37.405-35.663v71.327c10.947-4.617 19.827-9.77 26.179-15.318-1.869 7.516-8.262 22.722-13.36 33.416-8.377 15.294-11.411 28.609-11.022 29.267 0.248 0.415 3.106-3.994 7.32-11.138 9.807-13.975 28.392-40.654 32.106-47.45 4.207-7.704 1.838-11.263 1.838-11.263z"></path>
<path d="M42.82 257.506c0 2.583 0.519 5.127 1.522 7.621l-3.42 6.087c0 0-2.739 3.554 2.085 11.052 4.255 6.611 25.568 32.491 36.817 46.044 4.832 6.948 8.108 11.228 8.394 10.815 0.452-0.656-3.003-13.701-12.6-28.583-4.477-7.994-9.825-18.584-13.035-26.406 8.961 5.671 20.685 10.816 34.615 15.244v-83.747c-33.567 10.667-54.378 25.487-54.378 41.873z"></path>
<path d="M221.921 76.416c-2.143 0-4.14 1.157-5.259 3.059l-11.143 18.768c-1.751 0.151-3.505 0.334-5.246 0.535l-14.428-16.141c-1.461-1.631-3.635-2.359-5.733-1.929-2.111 0.439-3.846 1.977-4.594 4.078l-7.394 20.618c-1.712 0.514-3.408 1.056-5.099 1.612l-17.133-12.86c-1.742-1.312-4.010-1.589-5.993-0.727-1.976 0.855-3.4 2.725-3.742 4.928l-3.399 21.742c-1.573 0.851-3.129 1.726-4.682 2.619l-19.222-9.139c-1.952-0.931-4.231-0.738-6.009 0.508-1.786 1.239-2.829 3.361-2.748 5.594l0.738 22.064c-1.368 1.141-2.722 2.306-4.062 3.485l-20.604-5.065c-2.093-0.508-4.287 0.14-5.803 1.72-1.525 1.585-2.142 3.87-1.652 6.053l4.854 21.492c-1.126 1.393-2.24 2.801-3.332 4.227l-21.157-0.769c-2.135-0.063-4.172 1.004-5.366 2.867-1.194 1.854-1.375 4.227-0.487 6.271l8.765 20.050c-0.851 1.61-1.697 3.234-2.511 4.882l-20.847 3.538c-2.117 0.357-3.901 1.835-4.725 3.902-0.819 2.072-0.55 4.433 0.695 6.25l12.334 17.86c-0.096 0.315-0.185 0.633-0.281 0.95l-34.863 37.033c0 0-5.34 4.188 2.439 14.028 6.859 8.68 42.077 43.092 60.677 61.121 7.857 9.152 13.238 14.82 13.801 14.33 0.887-0.779-3.772-17.431-19.246-36.969-11.927-17.529-27.408-44.491-23.775-47.599 0 0 4.125-5.24 12.409-9.012l-0-0c-0.077-0.060-0.153-0.121 0.004-0.001 0 0 174.838 80.652 337.017 1.365 18.526-3.324 29.742 6.601 29.742 6.601 3.868 2.242-6.148 29.964-14.383 48.316-11.202 20.838-12.845 37.098-11.894 37.662 0.599 0.357 4.674-5.844 10.488-15.714 14.345-19.988 41.461-58.093 46.424-67.347 5.628-10.494 0-13.435 0-13.435l-37.533-27.647c-0.353-1.231-0.706-2.462-1.070-3.682l12.328-17.86c1.257-1.817 1.512-4.178 0.695-6.25-0.819-2.061-2.608-3.54-4.726-3.902l-20.846-3.538c-0.807-1.648-1.654-3.271-2.503-4.882l8.757-20.050c0.901-2.044 0.711-4.417-0.483-6.271-1.19-1.862-3.211-2.952-5.363-2.867l-21.157 0.769c-1.096-1.426-2.208-2.84-3.343-4.227l4.861-21.492c0.492-2.183-0.13-4.467-1.649-6.053-1.512-1.58-3.708-2.233-5.796-1.72l-20.607 5.065c-1.334-1.179-2.691-2.344-4.063-3.485l0.742-22.064c0.079-2.233-0.961-4.356-2.75-5.594-1.786-1.247-4.055-1.435-6.009-0.508l-19.225 9.139c-1.548-0.888-3.105-1.768-4.679-2.619l-3.397-21.742c-0.344-2.203-1.762-4.074-3.747-4.928-1.978-0.858-4.246-0.581-5.983 0.727l-17.139 12.86c-1.687-0.56-3.383-1.098-5.1-1.612l-7.387-20.618c-0.751-2.101-2.483-3.644-4.596-4.078-2.105-0.431-4.271 0.297-5.731 1.929l-14.427 16.141c-1.745-0.201-3.49-0.385-5.24-0.535l-11.14-18.768c-1.129-1.901-3.122-3.059-5.269-3.059zM48.099 272.388c-0.001 0-0.002 0.001-0.003 0.001 0.077 0.060 0.154 0.119 0.003-0.001zM273.457 219.305c5.116 0.066 10.849 2.224 16.582 8.501 0 0 13.729 25.51 0 38.264 0 0-22.464 17.857-34.944 0 0 0-14.976-14.031 0-38.264 0 0 7.887-8.636 18.362-8.501zM191.537 219.618c8.885-0.054 19.381 3.577 23.727 19.313 0 0 8.568 34.524-24.613 36.472 0 0-42.311-8.149-13.538-52.822 0 0 6.585-2.916 14.425-2.963z"></path>
<path d="M163.864 321.588c-0.669-0.571-1.019-0.909-1.019-0.909l57.272-4.692c-46.717-61.63-84.144-12.535-88.127-7.046v12.646z"></path>
<path d="M283.111 320.924c0.668-0.571 1.019-0.91 1.019-0.91l-55.038-4.027c46.739-64.16 81.912-13.2 85.895-7.71v12.647z"></path>
<path d="M371.091 259.737c0 0-6.258 24.927-45.182 51.123l-10.915 2.558c0 0-35.309-64.39-85.333 8.17 0 0 15.59-9.077 57.384 1.977 0 0-19.226 29.427-57.954 28.522 0 0 37.114 44.526 93.592-19.789 0 0 59.703-23.088 64.546-72.561z"></path>
<path d="M160.275 326.238c36.897-4.65 58.22-5.083 58.22-5.083-49.366-65.123-89.424-6.165-89.424-6.165-10.038-3.589-20.272-17.523-27.915-30.371l-30.631-9.072c35.306 59.923 61.592 60.836 61.592 60.836 54.729 70.148 80.656 13.779 80.656 13.779-30.724-3.488-52.499-23.924-52.499-23.924z"></path>
<path d="M275.324 234.903c0 7.449-4.391 13.489-9.807 13.489s-9.806-6.039-9.806-13.489 4.391-13.489 9.806-13.489c5.415 0 9.807 6.040 9.807 13.489z"></path>
<path d="M192.164 235.392c0 7.682-4.528 13.913-10.114 13.913-5.584 0-10.114-6.231-10.114-13.913 0-7.684 4.529-13.913 10.114-13.913 5.586 0 10.114 6.229 10.114 13.913z"></path>
</svg>
