<!-- Generated by IcoMoon.io -->
<svg version="1.1" xmlns="http://www.w3.org/2000/svg" width="32" height="32" viewBox="0 0 32 32">
<title>django</title>
<path d="M3.884 11.793v1.312l-0.098-0.018c-0.602-0.105-1.243-0.063-1.789 0.119-1.209 0.404-1.887 1.475-1.826 2.887 0.029 0.633 0.156 1.069 0.43 1.481 0.391 0.589 1.024 0.939 1.95 1.085 0.681 0.108 2.066 0.032 3.003-0.166l0.071-0.016v-7.991h-1.742v1.309zM3.76 14.469l0.124 0.032v2.784l-0.177 0.016c-0.689 0.066-1.143-0.050-1.433-0.37-0.227-0.248-0.343-0.602-0.343-1.037 0-0.771 0.367-1.293 1.013-1.441 0.187-0.042 0.625-0.034 0.816 0.016z"></path>
<path d="M6.655 11.368v0.884h1.742l-0.005-0.879-0.008-0.876-0.863-0.008-0.866-0.005v0.884z"></path>
<path d="M11.379 13.034c-0.615 0.045-1.259 0.203-1.8 0.441l-0.153 0.069v0.665c0 0.52 0.008 0.66 0.034 0.649 0.932-0.399 1.393-0.509 2.043-0.491 0.274 0.008 0.333 0.018 0.396 0.066 0.127 0.092 0.166 0.206 0.166 0.478 0 0.135-0.005 0.245-0.013 0.245-0.076 0-0.591 0.066-0.837 0.108-1.264 0.211-1.919 0.644-2.093 1.375-0.050 0.219-0.050 0.747 0 0.966 0.085 0.354 0.264 0.618 0.549 0.8 0.591 0.383 1.483 0.422 3.813 0.166l0.164-0.018v-1.982c0-1.090-0.013-2.090-0.026-2.222-0.079-0.742-0.433-1.114-1.206-1.261-0.216-0.040-0.789-0.069-1.037-0.053zM12.144 16.868v0.578l-0.23 0.034c-0.359 0.053-0.839 0.047-0.99-0.011-0.275-0.106-0.383-0.414-0.243-0.684 0.076-0.148 0.264-0.269 0.544-0.351 0.137-0.040 0.726-0.137 0.86-0.142l0.058-0.003v0.578z"></path>
<path d="M16.815 13.036c-0.626 0.026-1.56 0.177-2.222 0.354l-0.1 0.026v5.223h1.742l0.005-2.053 0.008-2.050 0.185-0.050c0.132-0.034 0.285-0.050 0.541-0.053 0.322-0.003 0.37 0.003 0.496 0.061 0.171 0.077 0.28 0.198 0.34 0.377 0.042 0.127 0.047 0.303 0.055 1.953l0.008 1.816h1.715l-0.011-2.064c-0.008-1.855-0.013-2.085-0.053-2.235-0.079-0.298-0.198-0.499-0.414-0.718-0.338-0.34-0.792-0.517-1.486-0.575-0.322-0.026-0.414-0.029-0.81-0.011z"></path>
<path d="M28.412 13.057c-1.016 0.185-1.744 0.794-2.051 1.723-0.145 0.435-0.185 0.744-0.169 1.296 0.011 0.33 0.029 0.531 0.066 0.692 0.216 0.921 0.789 1.567 1.644 1.858 0.731 0.251 1.739 0.209 2.404-0.1 0.85-0.39 1.37-1.156 1.496-2.196 0.148-1.203-0.251-2.291-1.032-2.829-0.34-0.235-0.612-0.346-1.058-0.433-0.306-0.061-1.003-0.066-1.301-0.011zM29.383 14.469c0.28 0.103 0.491 0.375 0.607 0.778 0.053 0.182 0.061 0.272 0.061 0.647 0 0.372-0.008 0.464-0.061 0.641-0.116 0.406-0.293 0.644-0.581 0.779-0.129 0.061-0.185 0.071-0.401 0.071-0.214 0-0.272-0.011-0.396-0.069-0.285-0.132-0.456-0.346-0.575-0.705-0.090-0.275-0.114-0.91-0.048-1.235 0.079-0.377 0.237-0.652 0.478-0.816 0.256-0.177 0.599-0.211 0.916-0.092z"></path>
<path d="M23.453 13.060c-0.694 0.074-1.214 0.201-1.668 0.409-1.082 0.496-1.644 1.399-1.644 2.636 0 1.214 0.554 2.093 1.531 2.433 0.554 0.193 1.301 0.201 1.829 0.018 0.129-0.045 0.238-0.076 0.243-0.071 0.021 0.021-0.040 0.52-0.082 0.655-0.135 0.451-0.404 0.707-0.881 0.837-0.245 0.069-1.079 0.069-1.399 0-0.28-0.058-0.668-0.185-0.916-0.298l-0.193-0.087v1.599l0.311 0.095c0.528 0.161 0.974 0.23 1.544 0.23 1.301 0.003 2.227-0.398 2.771-1.198 0.243-0.359 0.399-0.815 0.472-1.396 0.037-0.296 0.045-3.346 0.011-4.053l-0.018-0.378 0.203 0.008 0.206 0.011 0.288-0.602c0.158-0.33 0.282-0.607 0.277-0.615-0.024-0.021-0.549-0.116-0.955-0.171-0.296-0.040-0.583-0.055-1.111-0.063-0.391-0.003-0.76-0.003-0.818 0.003zM23.714 14.844c0.008 0.238 0.021 0.86 0.029 1.385l0.016 0.955-0.1 0.027c-0.39 0.105-0.776 0.105-1.045 0.005-0.449-0.172-0.676-0.557-0.699-1.182-0.018-0.523 0.082-0.858 0.343-1.132 0.288-0.304 0.731-0.467 1.304-0.483l0.137-0.003 0.016 0.428z"></path>
<path d="M6.655 15.161c0 2.99-0.037 3.381-0.362 4.014-0.203 0.396-0.578 0.726-1.14 1.008-0.143 0.071-0.187 0.103-0.158 0.119 0.021 0.013 0.383 0.185 0.802 0.383l0.765 0.362 0.161-0.082c1.024-0.53 1.489-1.272 1.62-2.602 0.018-0.174 0.037-1.264 0.045-2.752l0.016-2.46h-1.75v2.011z"></path>
</svg>
