<?xml version="1.0" standalone="no"?>
<!DOCTYPE svg PUBLIC "-//W3C//DTD SVG 1.1//EN" "http://www.w3.org/Graphics/SVG/1.1/DTD/svg11.dtd" >
<svg xmlns="http://www.w3.org/2000/svg" xmlns:xlink="http://www.w3.org/1999/xlink" version="1.1" viewBox="-10 0 1093 1024">
   <path fill="currentColor"
d="M755 277h6q10 4 20 25q13 29 28 96q17 75 31 157q10 -23 32 -26h137q-19 6 -31 15q-25 20 -35 75q-2 12 -4.5 36t-4.5 36q-10 41 -32 57l-132 -1q-8 3 -16 -8q-11 -16 -25 -61q-17 -66 -41 -195q-12 73 -25 130q-17 79 -30 110q-11 22 -21 26q-57 -1 -113 -1h-11.5
t-11.5 1q-8 -3 -15 -14q-11 -19 -26 -72q-15 -60 -37 -179q-13 74 -24 127q-18 79 -30 110q-11 24 -22 27h-133q-9 0 -18 -16q-10 -21 -17.5 -61.5t-10.5 -49.5q-15 -55 -38 -77q-8 -9 -29 -15h4.5h4.5h1h1h1h1h1h1h1h2h1h1h1h1h1h1h1h1h1h1h1h1h1h1h1h2h1h1h1h1h1h1h1h1h1
h1h1h1h1h1h1h1h2h1h1h1h1h1h1h1h1h1h2h1h1h1h1h1h1h1h1h1h1h1h1h1h1h1h2h1h1h1h1h1h1h1h1h1h1h1h1h1h1h1h1h2h1h1h1h1h1h1h1h1h1h1h1h1h1h1h1h2h1h1h10.5h11t10 1t10.5 3q2 1 5 4t5.5 5l2.5 2q17 -88 26 -129q18 -80 31 -111q11 -22 21 -26h127q5 0 11 -1q10 -2 18 11
q12 19 27 73q10 42 34 164q1 -5 3 -16t3 -17q23 -118 37 -165q13 -35 23 -46q6 -6 18 -3h76h25.5t25.5 -1zM470 279q-10 0 -12 3q-9 8 -20 39q-16 49 -37 159q6 36 11 62q21 109 35 155q12 35 22 45q7 6 12.5 2t9.5 -12q13 -27 29 -95q6 -22 23 -108q-2 -14 -9 -50t-11 -56
q-16 -78 -31 -114q-11 -26 -22 -30zM755 280q-3 -1 -9 5q-10 11 -21 46q-15 48 -35 151q15 84 25 129q17 77 30 108q12 23 21 26q15 -1 27 -24q5 -12 9.5 -27t7 -24.5t6 -29t4.5 -26.5q1 -3 3 -12t3 -13l3 -9t3 -8q2 -8 6 -16q-3 -21 -12 -66q-21 -110 -35 -157
q-12 -36 -22 -48q-5 -7 -14 -5zM88 530q7 3 15 9q23 20 39 68q5 17 12.5 58.5t16.5 62.5q9 18 17 18q7 -4 17 -24q12 -30 21 -72q8 -32 20 -94q1 -1 1 -4.5t1 -4.5q-12 -15 -30 -16q-80 0 -130 -1z" />
</svg>
