<!-- Generated by IcoMoon.io -->
<svg version="1.1" xmlns="http://www.w3.org/2000/svg" width="32" height="32" viewBox="0 0 32 32">
<title>mocha</title>
<path d="M28.25 8.017l-11.45-6.617c-0.5-0.283-1.1-0.283-1.583 0l-11.467 6.617c-0.5 0.283-0.8 0.8-0.8 1.367v13.233c0 0.55 0.3 1.083 0.8 1.367l11.45 6.617c0.5 0.283 1.1 0.283 1.583 0l11.45-6.617c0.483-0.283 0.783-0.817 0.8-1.367v-13.233c0-0.55-0.3-1.083-0.783-1.367zM27.25 21.7c0 0.483-0.25 0.933-0.683 1.183l-9.9 5.7c-0.2 0.133-0.45 0.183-0.683 0.183s-0.483-0.067-0.683-0.183l-9.9-5.717c-0.433-0.233-0.683-0.683-0.683-1.183v-11.417c0-0.483 0.25-0.933 0.683-1.183l9.9-5.717c0.2-0.133 0.45-0.183 0.683-0.183s0.483 0.067 0.683 0.183l9.9 5.717c0.433 0.233 0.683 0.683 0.683 1.183v11.433z"></path>
<path d="M13.017 15.050c-0.1-0.1-0.2-0.167-0.333-0.233s-0.267-0.1-0.433-0.1-0.3 0.033-0.433 0.1c-0.133 0.067-0.233 0.15-0.333 0.233-0.1 0.1-0.167 0.217-0.217 0.35-0.050 0.15-0.083 0.283-0.083 0.433v0c0 0.167 0.033 0.3 0.083 0.45s0.133 0.25 0.217 0.367c0.1 0.1 0.2 0.167 0.333 0.233s0.283 0.1 0.433 0.1c0.167 0 0.3-0.033 0.433-0.1s0.233-0.15 0.333-0.233c0.1-0.1 0.167-0.217 0.217-0.35 0.050-0.15 0.083-0.283 0.083-0.433v-0.017c0-0.167-0.033-0.3-0.083-0.45-0.033-0.133-0.117-0.25-0.217-0.35z"></path>
<path d="M24.383 14.917l-0.533 1.267h1.083z"></path>
<path d="M16.8 10.617h-2.1c-0.1 0-0.167 0.083-0.167 0.167 0.017 0.45 0.083 1.717 0.617 2.35 0.033 0.033 0.067 0.050 0.117 0.050h0.933c0.050 0 0.083-0.017 0.133-0.050 0.533-0.65 0.617-1.917 0.617-2.35 0.017-0.117-0.067-0.167-0.15-0.167zM16.25 12.933c-0.033 0.033-0.067 0.050-0.1 0.050h-0.8c-0.033 0-0.083-0.017-0.1-0.050-0.183-0.233-0.317-0.55-0.4-0.883 0 0 0.917 0.133 1.45-0.067 0.383-0.15 0.4-0.283 0.4-0.283-0.050 0.417-0.183 0.917-0.45 1.233z"></path>
<path d="M26.317 9.517l-9.883-5.717c-0.15-0.083-0.283-0.133-0.45-0.133-0.15 0-0.3 0.050-0.45 0.133l-9.883 5.717c-0.267 0.167-0.45 0.467-0.45 0.783v11.417c0 0.317 0.167 0.617 0.45 0.783l9.9 5.717c0.133 0.083 0.283 0.133 0.45 0.133s0.3-0.050 0.45-0.133l9.9-5.717c0.267-0.167 0.45-0.467 0.45-0.783v-11.433c-0.033-0.317-0.2-0.617-0.483-0.767zM16.033 8.167c-0.083 0.117 0.017 0.383 0.217 0.7 0.35 0.6-0.217 0.933-0.217 0.933 0.017-0.1-0.050-0.4-0.167-0.533-0.383-0.583-0.033-0.85 0.167-1.1zM15.4 8.75c-0.067 0.067 0 0.25 0.15 0.467 0.233 0.417-0.15 0.633-0.15 0.633 0-0.067-0.033-0.267-0.117-0.35-0.25-0.4-0.017-0.583 0.117-0.75zM14.25 10.117h3c0.1 0 0.167 0.083 0.167 0.167 0 0.55-0.083 2.417-0.867 3.3-0.033 0.033-0.067 0.050-0.117 0.050h-1.333c-0.050 0-0.083-0.017-0.117-0.050-0.8-0.9-0.867-2.767-0.867-3.3-0.033-0.1 0.050-0.167 0.133-0.167zM15.667 16.283c0.050 0.15 0.133 0.25 0.217 0.367 0.1 0.1 0.2 0.183 0.333 0.233s0.267 0.1 0.417 0.1c0.183 0 0.367-0.033 0.5-0.117s0.267-0.167 0.417-0.3l0.367 0.367c-0.083 0.1-0.167 0.167-0.25 0.233-0.1 0.083-0.183 0.133-0.283 0.167-0.1 0.050-0.217 0.1-0.333 0.117-0.15 0.033-0.283 0.033-0.433 0.033-0.233 0-0.45-0.050-0.633-0.133s-0.367-0.2-0.517-0.35c-0.15-0.15-0.25-0.317-0.333-0.517s-0.133-0.417-0.133-0.633v-0.017c0-0.217 0.050-0.45 0.133-0.633s0.183-0.367 0.333-0.517c0.15-0.15 0.317-0.267 0.517-0.35s0.417-0.133 0.667-0.133c0.15 0 0.267 0.017 0.4 0.033 0.133 0.033 0.217 0.067 0.333 0.1 0.1 0.050 0.183 0.1 0.267 0.167s0.167 0.133 0.233 0.2l-0.367 0.417c-0.133-0.117-0.25-0.2-0.4-0.283s-0.3-0.117-0.5-0.117c-0.167 0-0.283 0.033-0.417 0.1s-0.233 0.15-0.333 0.233c-0.1 0.1-0.167 0.217-0.217 0.35-0.050 0.15-0.083 0.283-0.083 0.433v0c0.033 0.167 0.067 0.317 0.1 0.45zM5.867 12.467h8.117c0 0.067 0.017 0.117 0.017 0.167h-8.133v-0.167zM13.917 15.833v0c0 0.233-0.050 0.45-0.133 0.65-0.083 0.183-0.183 0.367-0.35 0.517-0.15 0.15-0.317 0.267-0.517 0.35-0.2 0.1-0.433 0.133-0.667 0.133s-0.467-0.050-0.667-0.133c-0.2-0.083-0.383-0.2-0.517-0.35-0.15-0.15-0.25-0.317-0.333-0.517-0.083-0.183-0.133-0.417-0.133-0.633v-0.017c0-0.217 0.050-0.433 0.133-0.633 0.083-0.183 0.183-0.367 0.35-0.517 0.15-0.15 0.317-0.267 0.517-0.35 0.2-0.1 0.433-0.133 0.667-0.133s0.467 0.050 0.667 0.133 0.383 0.2 0.517 0.35c0.15 0.15 0.25 0.317 0.333 0.517 0.1 0.2 0.133 0.417 0.133 0.633zM7.817 16.667v0l-1-1.483v2.267h-0.55v-3.183h0.583l0.967 1.5 0.967-1.5h0.583v3.183h-0.55v-2.283l-1 1.5zM26.133 18.617h-20.267v-0.167h20.283v0.167zM21.117 15.583v-1.317h0.55v3.183h-0.55v-1.333h-1.533v1.333h-0.55v-3.183h0.55v1.317h1.533zM22.733 17.45l1.4-3.2h0.517l1.4 3.2h-0.583l-0.317-0.767h-1.5l-0.333 0.767h-0.583zM26.133 12.65h-8.633c0-0.067 0.017-0.117 0.017-0.167h8.617v0.167z"></path>
</svg>
