<?xml version="1.0" encoding="utf-8"?>
<!-- Generator: Adobe Illustrator 21.0.0, SVG Export Plug-In . SVG Version: 6.00 Build 0)  -->
<!DOCTYPE svg PUBLIC "-//W3C//DTD SVG 1.1//EN" "http://www.w3.org/Graphics/SVG/1.1/DTD/svg11.dtd">
<svg version="1.1"
	 id="Layer_1" inkscape:export-filename="/Users/boneskull/Downloads/mocha-logo-192.png" inkscape:export-xdpi="90" inkscape:export-ydpi="90" inkscape:version="0.91 r13725" sodipodi:docname="mocha-logo.svg" xmlns:cc="http://creativecommons.org/ns#" xmlns:dc="http://purl.org/dc/elements/1.1/" xmlns:inkscape="http://www.inkscape.org/namespaces/inkscape" xmlns:rdf="http://www.w3.org/1999/02/22-rdf-syntax-ns#" xmlns:sodipodi="http://sodipodi.sourceforge.net/DTD/sodipodi-0.dtd" xmlns:svg="http://www.w3.org/2000/svg"
	 xmlns="http://www.w3.org/2000/svg" xmlns:xlink="http://www.w3.org/1999/xlink" x="0px" y="0px" viewBox="0 0 192 192"
	 style="enable-background:new 0 0 192 192;" xml:space="preserve">
<style type="text/css">
	.st0{fill:#444444;}
</style>
<g>
	<path class="st0" d="M169.5,48.1L100.8,8.4c-3-1.7-6.6-1.7-9.5,0L22.5,48.1c-3,1.7-4.8,4.8-4.8,8.2v79.4c0,3.3,1.8,6.5,4.8,8.2
		l68.7,39.7c3,1.7,6.6,1.7,9.5,0l68.7-39.7c2.9-1.7,4.7-4.9,4.8-8.2V56.3C174.2,53,172.4,49.8,169.5,48.1z M163.5,130.2
		c0,2.9-1.5,5.6-4.1,7.1L100,171.5c-1.2,0.8-2.7,1.1-4.1,1.1c-1.4,0-2.9-0.4-4.1-1.1l-59.4-34.3c-2.6-1.4-4.1-4.1-4.1-7.1V61.6
		c0-2.9,1.5-5.6,4.1-7.1l59.4-34.3c1.2-0.8,2.7-1.1,4.1-1.1c1.4,0,2.9,0.4,4.1,1.1l59.4,34.3c2.6,1.4,4.1,4.1,4.1,7.1V130.2z"/>
	<g>
		<path class="st0" d="M78.1,90.3c-0.6-0.6-1.2-1-2-1.4c-0.8-0.4-1.6-0.6-2.6-0.6s-1.8,0.2-2.6,0.6c-0.8,0.4-1.4,0.9-2,1.4
			c-0.6,0.6-1,1.3-1.3,2.1c-0.3,0.9-0.5,1.7-0.5,2.6V95c0,1,0.2,1.8,0.5,2.7c0.3,0.9,0.8,1.5,1.3,2.2c0.6,0.6,1.2,1,2,1.4
			c0.8,0.4,1.7,0.6,2.6,0.6c1,0,1.8-0.2,2.6-0.6c0.8-0.4,1.4-0.9,2-1.4c0.6-0.6,1-1.3,1.3-2.1c0.3-0.9,0.5-1.7,0.5-2.6v-0.1
			c0-1-0.2-1.8-0.5-2.7C79.2,91.6,78.7,90.9,78.1,90.3z"/>
		<polygon class="st0" points="146.3,89.5 143.1,97.1 149.6,97.1 		"/>
		<path class="st0" d="M100.8,63.7h-6.3h-6.3c-0.6,0-1,0.5-1,1c0.1,2.7,0.5,10.3,3.7,14.1c0.2,0.2,0.4,0.3,0.7,0.3h5.6
			c0.3,0,0.5-0.1,0.8-0.3c3.2-3.9,3.7-11.5,3.7-14.1C101.8,64,101.3,63.7,100.8,63.7z M97.5,77.6c-0.2,0.2-0.4,0.3-0.6,0.3h-4.8
			c-0.2,0-0.5-0.1-0.6-0.3c-1.1-1.4-1.9-3.3-2.4-5.3c0,0,5.5,0.8,8.7-0.4c2.3-0.9,2.4-1.7,2.4-1.7C99.9,72.7,99.1,75.7,97.5,77.6z"
			/>
		<path class="st0" d="M157.9,57.1L98.6,22.8c-0.9-0.5-1.7-0.8-2.7-0.8c-0.9,0-1.8,0.3-2.7,0.8L33.9,57.1c-1.6,1-2.7,2.8-2.7,4.7
			v68.5c0,1.9,1,3.7,2.7,4.7l59.4,34.3c0.8,0.5,1.7,0.8,2.7,0.8s1.8-0.3,2.7-0.8l59.4-34.3c1.6-1,2.7-2.8,2.7-4.7V61.7
			C160.6,59.8,159.6,58,157.9,57.1z M96.2,49c-0.5,0.7,0.1,2.3,1.3,4.2c2.1,3.6-1.3,5.6-1.3,5.6c0.1-0.6-0.3-2.4-1-3.2
			C92.9,52.1,95,50.5,96.2,49z M92.4,52.5c-0.4,0.4,0,1.5,0.9,2.8c1.4,2.5-0.9,3.8-0.9,3.8c0-0.4-0.2-1.6-0.7-2.1
			C90.2,54.6,91.6,53.5,92.4,52.5z M85.5,60.7h9h9c0.6,0,1,0.5,1,1c0,3.3-0.5,14.5-5.2,19.8c-0.2,0.2-0.4,0.3-0.7,0.3h-8
			c-0.3,0-0.5-0.1-0.7-0.3c-4.8-5.4-5.2-16.6-5.2-19.8C84.5,61.1,85,60.7,85.5,60.7z M94,97.7c0.3,0.9,0.8,1.5,1.3,2.2
			c0.6,0.6,1.2,1.1,2,1.4s1.6,0.6,2.5,0.6c1.1,0,2.2-0.2,3-0.7c0.8-0.5,1.6-1,2.5-1.8l2.2,2.2c-0.5,0.6-1,1-1.5,1.4
			c-0.6,0.5-1.1,0.8-1.7,1c-0.6,0.3-1.3,0.6-2,0.7c-0.9,0.2-1.7,0.2-2.6,0.2c-1.4,0-2.7-0.3-3.8-0.8c-1.1-0.5-2.2-1.2-3.1-2.1
			c-0.9-0.9-1.5-1.9-2-3.1c-0.5-1.2-0.8-2.5-0.8-3.8V95c0-1.3,0.3-2.7,0.8-3.8c0.5-1.1,1.1-2.2,2-3.1c0.9-0.9,1.9-1.6,3.1-2.1
			s2.5-0.8,4-0.8c0.9,0,1.6,0.1,2.4,0.2c0.8,0.2,1.3,0.4,2,0.6c0.6,0.3,1.1,0.6,1.6,1c0.5,0.4,1,0.8,1.4,1.2l-2.2,2.5
			c-0.8-0.7-1.5-1.2-2.4-1.7c-0.9-0.5-1.8-0.7-3-0.7c-1,0-1.7,0.2-2.5,0.6c-0.8,0.4-1.4,0.9-2,1.4c-0.6,0.6-1,1.3-1.3,2.1
			c-0.3,0.9-0.5,1.7-0.5,2.6V95C93.6,96,93.8,96.9,94,97.7z M35.2,74.8h48.7c0,0.4,0.1,0.7,0.1,1H35.2V74.8z M83.5,95L83.5,95
			c0,1.4-0.3,2.7-0.8,3.9c-0.5,1.1-1.1,2.2-2.1,3.1c-0.9,0.9-1.9,1.6-3.1,2.1c-1.2,0.6-2.6,0.8-4,0.8c-1.4,0-2.8-0.3-4-0.8
			c-1.2-0.5-2.3-1.2-3.1-2.1c-0.9-0.9-1.5-1.9-2-3.1c-0.5-1.1-0.8-2.5-0.8-3.8V95c0-1.3,0.3-2.6,0.8-3.8c0.5-1.1,1.1-2.2,2.1-3.1
			c0.9-0.9,1.9-1.6,3.1-2.1c1.2-0.6,2.6-0.8,4-0.8c1.4,0,2.8,0.3,4,0.8s2.3,1.2,3.1,2.1c0.9,0.9,1.5,1.9,2,3.1
			C83.3,92.4,83.5,93.7,83.5,95z M46.9,100L46.9,100l-6-8.9v13.6h-3.3V85.6h3.5l5.8,9l5.8-9h3.5v19.1h-3.3V91L46.9,100z
			 M156.8,111.7H35.2v-1h121.7V111.7z M126.7,93.5v-7.9h3.3v19.1h-3.3v-8h-9.2v8h-3.3V85.6h3.3v7.9H126.7z M136.4,104.7l8.4-19.2
			h3.1l8.4,19.2h-3.5l-1.9-4.6h-9l-2,4.6H136.4z M156.8,75.9H105c0-0.4,0.1-0.7,0.1-1h51.7V75.9z"/>
	</g>
</g>
</svg>
