<!-- Generated by IcoMoon.io -->
<svg version="1.1" xmlns="http://www.w3.org/2000/svg" width="32" height="32" viewBox="0 0 32 32">
<title>php</title>
<path d="M10.372 12.784h-3.967l-1.715 8.684h2.037l0.429-2.251h1.93c1.822 0.107 3.86-1.394 3.86-3.967 0-1.501-0.858-2.359-2.573-2.466zM8.871 17.608h-1.287l0.536-3.216h1.394c0.75 0 1.287 0.322 1.287 0.965-0.107 1.823-0.965 2.144-1.93 2.251z"></path>
<path d="M17.555 12.784h-1.93l0.429-2.251h-2.037l-1.715 8.684h2.037l0.965-4.824h1.608c0.751 0 0.751 0.322 0.643 0.858l-0.75 3.967h2.144l0.75-4.396c0.214-1.072-0.429-1.93-2.144-2.037z"></path>
<path d="M24.738 12.784h-3.967l-1.715 8.684h2.037l0.429-2.251h1.93c1.823 0.107 3.86-1.394 3.86-3.967 0-1.501-0.858-2.359-2.573-2.466zM23.237 17.608h-1.287l0.536-3.216h1.394c0.751 0 1.287 0.322 1.287 0.965-0.107 1.823-0.965 2.144-1.93 2.251z"></path>
</svg>
