<!-- Generated by IcoMoon.io -->
<svg version="1.1" xmlns="http://www.w3.org/2000/svg" width="32" height="32" viewBox="0 0 32 32">
<title>ruby_on_rails</title>
<path d="M7.113 27.135h11.072c0 0-2.456-5.578-1.832-10.698s4.662-7.451 6.951-7.701c2.289-0.25 3.538 1.166 3.538 1.166l0.5-0.749c0 0-3.288-3.33-7.451-2.955s-7.035 3.122-8.824 6.452c-1.79 3.33-2.831 5.661-3.538 9.158s-0.416 5.328-0.416 5.328z"></path>
<path d="M4.907 21.557l2.164 0.167-0.375 2.164-2.040-0.25 0.25-2.081z"></path>
<path d="M8.32 16.978l0.583-1.623-1.915-0.749-0.624 1.748 1.956 0.624z"></path>
<path d="M11.026 11.4l1.124-1.332-1.457-0.957-1.165 1.29 1.498 0.999z"></path>
<path d="M13.981 6.239l0.999 1.207 1.374-0.791-0.999-1.124-1.374 0.708z"></path>
<path d="M18.851 4.865l0.25 1.207 1.707-0.042-0.167-1.082-1.79-0.083z"></path>
<path d="M24.637 6.156l-0.042 0.749 1.166 0.624 0.25-0.375-1.373-0.999z"></path>
<path d="M24.387 9.361v0.624l1.124 0.125v-0.5l-1.124-0.25z"></path>
<path d="M20.808 9.902l0.541 0.999 0.791-0.624-0.166-0.666-1.165 0.292z"></path>
<path d="M19.101 11.192l0.832 1.249-0.499 0.874-1.207-1.332 0.874-0.791z"></path>
<path d="M17.436 14.647l-0.541 1.082 1.415 1.207 0.333-1.374-1.207-0.916z"></path>
<path d="M16.853 18.435l-0.083 1.457 1.748 0.749-0.083-1.374-1.582-0.833z"></path>
<path d="M17.353 23.597l0.417 1.499 2.206 0.125-0.791-1.623h-1.832z"></path>
</svg>
