<!-- Generated by IcoMoon.io -->
<svg version="1.1" xmlns="http://www.w3.org/2000/svg" width="32" height="32" viewBox="0 0 32 32">
<title>snap_svg</title>
<path d="M15.99 25.617l-4.018-1.96 0.005-0.002-0.001-0-4.269 2.082 8.286 4.041 8.299-4.032-4.284-2.122z"></path>
<path d="M7.718 25.751v-4.165l4.108-2.004 4.225 2.084z"></path>
<path d="M20.549 8.611v6.585l-4.593 2.239 4.224 2.103 4.112-2.003v-11.263z"></path>
<path d="M24.293 25.747v0-4.165l-12.831-6.39v-6.585l-3.743-2.339v11.263z"></path>
<path d="M11.45 8.6v-0.001l4.543-2.216 4.544 2.216 3.738-2.336-8.285-4.041-8.283 4.043 3.739 2.337z"></path>
</svg>
