<!-- Generated by IcoMoon.io -->
<svg version="1.1" xmlns="http://www.w3.org/2000/svg" width="32" height="32" viewBox="0 0 32 32">
<title>stackoverflow</title>
<path d="M6.080 23.549v5.32h16.767v-10.673l-0.871 0.097-0.903 0.097-0.097 4.417-0.097 4.45h-13.188v-9.028h-1.612v5.32z"></path>
<path d="M8.982 24.356v0.967h10.318v-1.935h-10.318v0.967z"></path>
<path d="M9.137 20.546l-0.105 0.962 10.257 1.118 0.21-1.923-10.257-1.118-0.105 0.962z"></path>
<path d="M9.908 15.996l-0.251 0.934 9.965 2.676 0.502-1.868-9.965-2.676-0.251 0.934z"></path>
<path d="M12.024 10.692l-0.515 0.819 8.734 5.494 1.030-1.638-8.734-5.494-0.515 0.819z"></path>
<path d="M16.965 5.752l-0.797 0.549 5.853 8.498 1.593-1.097-5.853-8.498-0.797 0.549z"></path>
<path d="M23.413 3.263l-0.951 0.177 1.893 10.143 1.902-0.355-1.892-10.143-0.951 0.177z"></path>
</svg>
