<!-- Generated by IcoMoon.io -->
<svg version="1.1" xmlns="http://www.w3.org/2000/svg" width="32" height="32" viewBox="0 0 32 32">
<title>streamline</title>
<path d="M16 13.89c-5.915 0-10.549-2.085-10.549-4.747s4.634-4.747 10.549-4.747 10.549 2.085 10.549 4.747c0 2.662-4.634 4.747-10.549 4.747zM16 5.451c-4.491 0-9.494 1.516-9.494 3.692s5.003 3.692 9.494 3.692c4.491 0 9.494-1.516 9.494-3.692s-5.004-3.692-9.494-3.692z"></path>
<path d="M16 18.11c-5.915 0-10.549-2.085-10.549-4.747v-4.22c0-0.292 0.236-0.527 0.527-0.527s0.527 0.236 0.527 0.527v4.22c0 2.176 5.003 3.692 9.494 3.692s9.494-1.516 9.494-3.692v-4.22c0-0.292 0.236-0.527 0.527-0.527s0.527 0.236 0.527 0.527v4.22c0 2.662-4.634 4.747-10.549 4.747z"></path>
<path d="M16 22.857c-5.915 0-10.549-2.085-10.549-4.747v-4.747c0-0.291 0.236-0.527 0.527-0.527s0.527 0.236 0.527 0.527v4.747c0 2.176 5.003 3.692 9.494 3.692s9.494-1.517 9.494-3.692v-4.747c0-0.291 0.236-0.527 0.527-0.527s0.527 0.236 0.527 0.527v4.747c0 2.662-4.634 4.747-10.549 4.747z"></path>
<path d="M16 27.604c-5.915 0-10.549-2.085-10.549-4.747v-4.747c0-0.291 0.236-0.527 0.527-0.527s0.527 0.236 0.527 0.527v4.747c0 2.176 5.003 3.692 9.494 3.692s9.494-1.517 9.494-3.692v-4.747c0-0.291 0.236-0.527 0.527-0.527s0.527 0.236 0.527 0.527v4.747c0 2.662-4.634 4.747-10.549 4.747z"></path>
</svg>
