<?xml version="1.0" encoding="utf-8"?>
<!-- Generator: Adobe Illustrator 21.0.0, SVG Export Plug-In . SVG Version: 6.00 Build 0)  -->
<!DOCTYPE svg PUBLIC "-//W3C//DTD SVG 1.1//EN" "http://www.w3.org/Graphics/SVG/1.1/DTD/svg11.dtd">
<svg version="1.1" id="Layer_1" xmlns="http://www.w3.org/2000/svg" xmlns:xlink="http://www.w3.org/1999/xlink" x="0px" y="0px"
	 viewBox="0 0 32 32" style="enable-background:new 0 0 32 32;" xml:space="preserve">
<style type="text/css">
	.st0{fill:#444444;}
</style>
<g id="yFjLkq_1_">
	<g>
		<path class="st0" d="M31.7,32c-10.4,0-20.8,0-31.3,0c0-10.4,0-20.8,0-31.3c0.1,0,0.1,0,0.2,0c10.3,0,20.6,0,30.8,0
			c0.2,0,0.2,0,0.2,0.2c0,10.3,0,20.6,0,30.8C31.7,31.9,31.7,31.9,31.7,32z M24.4,29.5c0.2,0,0.4,0,0.7,0c0.8,0,1.5-0.3,2.2-0.7
			c0.8-0.5,1.4-1.1,1.7-2c0.2-0.7,0.3-1.4,0.2-2.1c-0.1-1.1-0.6-2-1.5-2.6c-0.8-0.6-1.8-1-2.7-1.4c-0.5-0.2-1-0.4-1.4-0.7
			c-0.5-0.3-0.7-0.7-0.7-1.3c0-0.5,0.2-0.8,0.6-1c0.3-0.1,0.6-0.2,0.9-0.1c0.5,0,0.9,0.2,1.3,0.6c0.1,0.2,0.2,0.3,0.4,0.5
			c0,0.1,0.1,0.1,0.2,0.1c0.7-0.5,1.4-0.9,2-1.4c0.1-0.1,0.1-0.1,0-0.2c-0.1-0.2-0.2-0.3-0.4-0.5c-0.5-0.7-1.2-1.2-2.1-1.5
			C25.5,15,25.1,15,24.7,15c-0.6,0-1.1,0-1.7,0.1c-1,0.2-1.8,0.7-2.4,1.5c-0.4,0.6-0.6,1.2-0.7,1.9c0,0.5,0,1,0.1,1.4
			c0.2,0.9,0.7,1.6,1.4,2.2c0.6,0.5,1.3,0.8,2,1.2c0.6,0.3,1.2,0.6,1.8,0.9c0.6,0.3,1,0.7,0.9,1.5c0,0.2-0.1,0.4-0.2,0.6
			c-0.2,0.3-0.5,0.4-0.8,0.5c-0.4,0.1-0.9,0.2-1.4,0.1s-1-0.3-1.4-0.6c-0.3-0.3-0.6-0.6-0.9-1c0-0.1-0.1-0.1-0.2-0.1
			c-0.7,0.4-1.4,0.8-2.1,1.2c-0.2,0.1-0.2,0.1-0.1,0.3c0.6,1,1.4,1.8,2.4,2.2C22.5,29.3,23.4,29.5,24.4,29.5z M14.2,23.5
			c0-1.9,0-3.7,0-5.6c0-0.2,0-0.2,0.2-0.2c1.2,0,2.5,0,3.7,0c0.1,0,0.2,0,0.2-0.2c0-0.4,0-0.7,0-1.1s0-0.8,0-1.1
			c0-0.1,0-0.2-0.2-0.2c-1.7,0-3.3,0-5,0c-1.9,0-3.7,0-5.6,0c-0.3,0-0.3,0-0.3,0.3c0,0.7,0,1.4,0,2.1c0,0.2,0,0.2,0.2,0.2
			c1.2,0,2.4,0,3.7,0c0.2,0,0.2,0,0.2,0.2c0,3.7,0,7.4,0,11.2c0,0.2,0,0.2,0.2,0.2c0.8,0,1.7,0,2.5,0c0.2,0,0.2,0,0.2-0.2
			C14.2,27.2,14.2,25.4,14.2,23.5z"/>
		<path class="st0" d="M31.7,32c0-0.1,0-0.1,0-0.2c0-10.3,0-20.6,0-30.8c0-0.2,0-0.2-0.2-0.2c-10.3,0-20.6,0-30.8,0
			c-0.1,0-0.1,0-0.2,0l0,0h0.1c10.4,0,20.8,0,31.2,0c0,0.1,0,0.1,0,0.2c0,10.3,0,20.7,0,31C31.7,31.9,31.7,32,31.7,32z"/>
	</g>
</g>
</svg>
