<!-- Generated by IcoMoon.io -->
<svg version="1.1" xmlns="http://www.w3.org/2000/svg" width="32" height="32" viewBox="0 0 32 32">
<title>typescript</title>
<path d="M31.7 32c-10.4 0-20.8 0-31.3 0 0-10.4 0-20.8 0-31.3 0.1 0 0.1 0 0.2 0 10.3 0 20.6 0 30.8 0 0.2 0 0.2 0 0.2 0.2 0 10.3 0 20.6 0 30.8 0.1 0.2 0.1 0.2 0.1 0.3zM24.4 29.5c0.2 0 0.4 0 0.7 0 0.8 0 1.5-0.3 2.2-0.7 0.8-0.5 1.4-1.1 1.7-2 0.2-0.7 0.3-1.4 0.2-2.1-0.1-1.1-0.6-2-1.5-2.6-0.8-0.6-1.8-1-2.7-1.4-0.5-0.2-1-0.4-1.4-0.7-0.5-0.3-0.7-0.7-0.7-1.3 0-0.5 0.2-0.8 0.6-1 0.3-0.1 0.6-0.2 0.9-0.1 0.5 0 0.9 0.2 1.3 0.6 0.1 0.2 0.2 0.3 0.4 0.5 0 0.1 0.1 0.1 0.2 0.1 0.7-0.5 1.4-0.9 2-1.4 0.1-0.1 0.1-0.1 0-0.2-0.1-0.2-0.2-0.3-0.4-0.5-0.5-0.7-1.2-1.2-2.1-1.5-0.3-0.2-0.7-0.2-1.1-0.2-0.6 0-1.1 0-1.7 0.1-1 0.2-1.8 0.7-2.4 1.5-0.4 0.6-0.6 1.2-0.7 1.9 0 0.5 0 1 0.1 1.4 0.2 0.9 0.7 1.6 1.4 2.2 0.6 0.5 1.3 0.8 2 1.2 0.6 0.3 1.2 0.6 1.8 0.9s1 0.7 0.9 1.5c0 0.2-0.1 0.4-0.2 0.6-0.2 0.3-0.5 0.4-0.8 0.5-0.4 0.1-0.9 0.2-1.4 0.1s-1-0.3-1.4-0.6c-0.3-0.3-0.6-0.6-0.9-1 0-0.1-0.1-0.1-0.2-0.1-0.7 0.4-1.4 0.8-2.1 1.2-0.2 0.1-0.2 0.1-0.1 0.3 0.6 1 1.4 1.8 2.4 2.2 1.1 0.4 2 0.6 3 0.6zM14.2 23.5c0-1.9 0-3.7 0-5.6 0-0.2 0-0.2 0.2-0.2 1.2 0 2.5 0 3.7 0 0.1 0 0.2 0 0.2-0.2 0-0.4 0-0.7 0-1.1s0-0.8 0-1.1c0-0.1 0-0.2-0.2-0.2-1.7 0-3.3 0-5 0-1.9 0-3.7 0-5.6 0-0.3 0-0.3 0-0.3 0.3 0 0.7 0 1.4 0 2.1 0 0.2 0 0.2 0.2 0.2 1.2 0 2.4 0 3.7 0 0.2 0 0.2 0 0.2 0.2 0 3.7 0 7.4 0 11.2 0 0.2 0 0.2 0.2 0.2 0.8 0 1.7 0 2.5 0 0.2 0 0.2 0 0.2-0.2 0-1.9 0-3.7 0-5.6z"></path>
<path d="M31.7 32c0-0.1 0-0.1 0-0.2 0-10.3 0-20.6 0-30.8 0-0.2 0-0.2-0.2-0.2-10.3 0-20.6 0-30.8 0-0.1 0-0.1 0-0.2 0v0h0.1c10.4 0 20.8 0 31.2 0 0 0.1 0 0.1 0 0.2 0 10.3 0 20.7 0 31-0.1-0.1-0.1 0-0.1 0z"></path>
</svg>
