<?xml version="1.0" encoding="utf-8"?>
<!-- Generated by IcoMoon.io -->
<!DOCTYPE svg PUBLIC "-//W3C//DTD SVG 1.1//EN" "http://www.w3.org/Graphics/SVG/1.1/DTD/svg11.dtd">
<svg version="1.1" xmlns="http://www.w3.org/2000/svg" xmlns:xlink="http://www.w3.org/1999/xlink" width="32" height="32" viewBox="0 0 32 32">
<path fill="#444444" d="M4 3v1.439h8.588V3H4zM19.105 3v1.439H28V3h-8.895zM4 6.037v1.438h8.588V6.037H4zM19.105 6.037v1.438H28V6.037h-8.895zM4 8.994v1.438h8.588V8.994H4zM19.105 8.994v1.438H28V8.994h-8.895zM4 15.643c0 4.955.015 5.163.537 6.785.56 1.767 1.31 3.045 2.484 4.268 2.055 2.126 4.716 3.173 8.366 3.293 4.186.136 7.368-.96 9.623-3.325 1.157-1.215 2.024-2.741 2.522-4.443.453-1.535.468-1.79.468-6.602v-4.387l-4.424.016-4.432.024s-.026 8.458-.039 10.909c-.007 1.385-.028 3.996-3.258 3.996-3.231 0-3.24-2.615-3.245-3.996-.008-2.43-.022-10.95-.022-10.95H4v4.412z"></path>
</svg>
