<!-- Generated by IcoMoon.io -->
<svg version="1.1" xmlns="http://www.w3.org/2000/svg" width="32" height="32" viewBox="0 0 32 32">
<title>yarn_kitten</title>
<path d="M24.7 20.2c-1.1 0-2.1 0.6-2.9 1.1-1.5 0.9-2.3 0.9-2.3 0.9s0 0 0 0c-0.1-0.2 0.5-1.7-0.2-3.5-0.7-2-1.8-2.5-1.8-2.6 0.4-0.7 1.4-1.7 1.7-3.6 0.2-1.2 0.2-3.1-0.4-4.1-0.1-0.2-1 0.3-1 0.3s-0.8-1.8-1-1.9c-0.7-0.5-1.5 1.9-1.5 1.9s-1.7-0.3-3 1.1c-0.3 0.3-0.6 0.4-1 0.6-0.1 0-0.2 0-0.5 0.9-0.5 1.3 0.8 2.7 0.8 2.7s-1.5 1.1-2.1 2.5c-0.6 1.5-0.4 2.9-0.4 2.9s-1.1 1-1.2 1.9c-0.1 0.9 0.2 1.6 0.4 2 0.3 0.4 0.7 0.2 0.7 0.2s-0.7 0.9 0 1.2c0.6 0.3 1.7 0.5 2.2 0 0.4-0.4 0.5-1.3 0.6-1.7 0-0.1 0.2 0.1 0.3 0.3 0.1 0.1 0.3 0.3 0.3 0.3s-1 0.4-0.6 1.4c0.1 0.3 0.6 0.5 1.4 0.5 0.3 0 3.5-0.2 4.3-0.4 0.5-0.1 0.7-0.4 0.7-0.4s2-0.6 3.9-1.8c1.2-0.8 1.7-1 2.6-1.2 1.1-0.3 1-1.5 0-1.5z"></path>
<path d="M16 0.3c-8.6 0-15.6 7-15.6 15.7s7 15.6 15.6 15.6 15.6-7 15.6-15.6-6.9-15.7-15.6-15.7zM25.2 22.5c-0.8 0.2-1.2 0.4-2.4 1.1-1.6 1-3.3 1.6-3.9 1.8-0.2 0.2-0.5 0.3-0.9 0.4-1 0.2-4.3 0.4-4.5 0.4h-0.1c-1 0-1.6-0.3-1.9-0.6-0.9 0.4-2 0.2-2.8-0.2-0.4-0.2-0.7-0.6-0.7-1 0-0.2 0-0.4 0-0.5-0.1-0.1-0.1-0.2-0.2-0.3-0.2-0.3-0.7-1.2-0.6-2.5 0.1-0.9 0.7-1.8 1.1-2.2 0-0.6 0-1.8 0.5-2.9 0.4-0.9 1.2-1.8 1.7-2.3-0.4-0.7-0.8-1.8-0.4-2.9 0.3-0.8 0.5-1.2 1.1-1.4v0c0.3-0.1 0.5-0.2 0.6-0.3 1-1.1 2.2-1.4 3-1.4 0-0.1 0.1-0.2 0.2-0.4 0.4-0.9 0.8-1.3 1.3-1.5 0.4-0.1 0.8-0.1 1.1 0.1 0.2 0.1 0.4 0.2 1 1.5 0.4-0.1 0.6-0.1 0.7 0 0.3 0.1 0.5 0.2 0.6 0.5 0.6 1.2 0.7 3.3 0.4 4.7-0.3 1.6-1 2.6-1.5 3.4 0.4 0.4 1 1.2 1.5 2.4 0.4 1 0.4 1.9 0.4 2.6 0.2-0.1 0.5-0.2 0.8-0.4 0.8-0.5 1.9-1.2 3.3-1.2 0.9 0 1.7 0.6 1.8 1.4 0.1 0.7-0.4 1.5-1.2 1.7z"></path>
</svg>
