<!-- Generated by IcoMoon.io -->
<svg version="1.1" xmlns="http://www.w3.org/2000/svg" width="32" height="32" viewBox="0 0 32 32">
<title>yarn</title>
<path d="M8.4 15.3c-0.4 1.5-1.1 2.6-1.9 3.4v-7.6c0-0.5-0.5-1-1.2-1-0.3 0-0.6 0.2-0.6 0.4s0.1 0.3 0.1 0.7v3.5c-0.3 1.5-0.9 2.9-1.8 2.9-0.6 0-1-0.6-1-1.8 0-1.8 0.2-2.8 0.6-4.4 0.1-0.3 0.7-1.2-0.3-1.2-1.1 0-1 0.4-1.1 0.8 0 0-0.8 2.6-0.8 4.9 0 1.9 0.8 3.1 2.3 3.1 0.9 0 1.6-0.6 2.1-1.5v2.7c-1.4 1.3-2.7 2.4-2.7 4.5 0 1.4 0.9 2.5 2.1 2.5 1.1 0 2.2-0.8 2.2-3.1v-3.7c1.2-1 2.4-2.3 3.2-4.8 0-0.1 0-0.2 0-0.2 0-0.4-0.4-0.9-0.8-0.9-0.1 0.1-0.3 0.3-0.4 0.8v0zM4.2 26c-0.3 0-0.6-0.5-0.6-1.2 0-1.3 0.5-2.1 1.2-2.8v2.3c0 0.4 0.1 1.7-0.6 1.7z"></path>
<path d="M14.6 17.6c-0.5 0-0.7-0.5-0.7-1v-3.6c0-0.5-0.5-1-1.2-1-0.3 0-0.6 0.2-0.6 0.4s0.1 0.3 0.1 0.7v3.3c-0.2 0.6-0.6 1.1-1.2 1.1-0.8 0-1.2-0.6-1.2-1.8 0-3.1 1.9-4.5 3.6-4.5 0.2 0 0.4 0 0.6 0s0.3-0.1 0.3-0.5c0-0.6-0.4-0.9-1-0.9-2.6 0-5.1 2.2-5.1 5.8 0 1.8 0.9 3.3 2.6 3.3 0.8 0 1.4-0.4 1.9-0.9 0.3 0.5 0.9 0.9 1.7 0.9 1.9 0 2.7-1.9 3.1-3.4 0-0.1 0-0.1 0-0.2 0-0.4-0.4-0.9-0.8-0.9-0.2 0-0.4 0.2-0.5 0.6-0.4 1.2-0.8 2.6-1.6 2.6v0z"></path>
<path d="M20.8 19c1.9 0 2.7-1.9 3.1-3.4 0 0 0-0.1 0-0.2 0-0.4-0.4-0.9-0.8-0.9-0.2 0-0.4 0.2-0.5 0.6-0.2 1-0.6 2.3-1.6 2.3-0.6 0-0.9-0.6-0.9-1.2 0-2.2 1-4.7 1-5 0.1-0.5-0.8-1.2-1-1.2h-1.1c-0.2 0-0.4 0-1.1-0.1-0.2-0.6-0.9-0.9-1.4-0.9-0.6 0-1.1 0.4-1.1 1s0.4 1.1 0.9 1.4c0 1.1-0.1 2.9-0.3 3.8-0.2 0.7 0.9 1.5 1.2 0.6 0.4-1.3 0.5-3.1 0.5-4h1.9c-0.7 1.9-1.1 3.4-1.1 4.8 0.1 1.9 1.3 2.4 2.3 2.4z"></path>
<path d="M22.7 18.1c0 0.8 0.6 1 1 1 0.6 0 0.6-0.5 0.6-0.9v-3.2c0.2-1.7 1.5-3.6 2.1-3.6 0.4 0 0.5 0.6 0.5 1.2v4.4c0 1.1 0.7 2 1.8 2 1.9 0 2.7-1.9 3.1-3.4 0-0.1 0-0.1 0-0.2 0-0.4-0.4-0.9-0.8-0.9-0.2 0-0.4 0.2-0.5 0.6-0.2 1-0.6 2.3-1.4 2.3-0.6 0-0.6-0.8-0.6-1v-4.5c0-1-0.3-2.2-1.8-2.2-1.1 0-1.8 0.9-2.4 2.1v-1c0-0.5-0.5-1-1.2-1-0.3 0-0.6 0.2-0.6 0.4s0.1 0.3 0.1 0.7l0.1 7.2z"></path>
</svg>
