<!-- Generated by IcoMoon.io -->
<svg version="1.1" xmlns="http://www.w3.org/2000/svg" width="32" height="32" viewBox="0 0 32 32">
<title>zend</title>
<path d="M15.334 13.738c0 0 0-2.972 2.972-2.972h8.917c0 0 0 2.972-2.972 2.972h-8.917z"></path>
<path d="M15.334 17.536c0 0 0-2.972 2.972-2.972h4.459c0 0 0 2.972-2.972 2.972h-4.459z"></path>
<path d="M15.334 21.334c0 0 0-2.972 2.972-2.972h1.486c0 0 0 2.972-2.972 2.972h-1.486z"></path>
<path d="M14.336 19.014v2.371h-9.559l6.158-8.399h-5.286v-2.371h9.972l-6.129 8.4z"></path>
</svg>
