<?xml version="1.0" encoding="utf-8"?>
<!-- Generator: Adobe Illustrator 16.0.0, SVG Export Plug-In . SVG Version: 6.00 Build 0)  -->
<!DOCTYPE svg PUBLIC "-//W3C//DTD SVG 1.1//EN" "http://www.w3.org/Graphics/SVG/1.1/DTD/svg11.dtd">
<svg version="1.1" id="Layer_1" xmlns="http://www.w3.org/2000/svg" xmlns:xlink="http://www.w3.org/1999/xlink" x="0px" y="0px"
	 width="400px" height="300px" viewBox="0 0 400 300" enable-background="new 0 0 400 300" xml:space="preserve">
<g transform="translate(0.000000,300.000000) scale(0.100000,-0.100000)">
	<path d="M1887.998,2630c-117.998-21.001-246.997-80-336.997-153.999C1360,2318.999,1262.002,2050,1313.999,1825
		c8.003-32.998,13.003-61.001,11.001-62.998c-2.002-2.002-21.001,5.996-43.999,16.997c-50,26.001-138.003,28.003-207.002,3.999
		c-67.998-22.998-145-101.997-168.999-171.997c-47.002-143.999,38.999-330.005,162.002-350.005l35.996-5.996l-38.999-25
		C981.001,1175.996,935,1065.996,942.002,940c3.999-60,10-87.002,30.996-122.998C1027.002,725.996,1123.999,670,1231.001,670
		c86.997,0,127.998,15,143.999,52.002c12.002,28.994,12.002,28.994,17.998-30c22.002-245,274.004-371.006,480-240
		c50,32.002,97.002,90.996,114.004,142.998l10,30l20-45.996c27.002-60,92.002-125,150.996-152.002
		c26.006-11.006,77.002-22.002,112.998-25c91.006-6.006,154.004,15.996,223.008,78.994C2567.998,540,2600,607.002,2600.996,685
		c1.006,30,5,52.002,10,49.004c5-3.008,9.004-12.002,9.004-20C2620,690,2684.004,670,2762.998,670c62.002,0,82.998,5,135,30.996
		c115,57.002,167.998,151.006,160,283.008C3050.996,1090,2975.996,1237.002,2920,1255c-30.996,10-22.998,24.004,7.998,15.996
		c57.998-15.996,147.998,78.008,172.002,180c22.998,94.004-9.004,207.002-77.002,271.006c-77.998,73.999-220,100.996-303.994,56.997
		c-23.008-11.001-42.002-18.999-44.004-16.997c-2.002,1.997,4.004,35,12.002,72.998c28.994,137.998-2.002,317.998-79.004,455
		c-17.998,30-70,92.998-117.002,140c-93.994,93.999-172.998,142.002-295.996,180C2115.996,2633.999,1962.998,2643.999,1887.998,2630
		z M2175,2485c235-71.001,394.004-277.002,410.996-533.999c8.008-103.999-5.996-183.999-45-267.002
		c-45-96.997-137.998-173.999-207.998-173.999c-25.996,0-23.994,2.002,15,20c31.006,13.999,47.002,28.999,57.002,53.999
		c24.004,57.002,17.998,61.001-30,17.002c-24.004-22.002-52.002-41.001-60-41.001c-25,0,5.996,50,62.002,100l47.998,42.998
		l-40-7.998c-80.996-13.999-127.002-57.998-140.996-133.999c-6.006-32.002-8.008-33.003-20-16.001
		c-36.006,48.999-5,102.002,100.996,170c85,53.999,115,91.001,115,137.998c0,57.002-77.002,105-145.996,93.003
		c-43.008-8.999-44.004-22.002,0-30c40.996-8.003,68.994-37.002,63.994-68.003C2355,1826.001,2330,1806.001,2220.996,1740
		c-57.998-35-93.994-90-97.998-152.998c-7.998-107.002,65-172.002,192.998-171.006c106.006,1.006,166.006,32.002,281.006,149.004
		c82.002,82.002,102.002,97.002,148.994,111.001c130,36.997,234.004-33.999,234.004-162.002
		c0-88.003-67.002-156.997-152.998-156.997c-74.004,0-124.004,85.996-77.002,132.998c27.002,27.002,77.002,26.001,107.002-2.002
		c28.994-27.002,38.994-17.998,22.998,21.001c-50,121.001-240,51.001-240-86.997c0-65,25.996-109.004,94.004-161.006
		c142.998-108.994,190-168.994,198.994-255.996c12.002-105-75-205-175-205c-45,0.996-110,32.002-135.996,65
		c-75,95,45.996,212.998,127.998,125c15.996-17.002,30-40,32.002-50.996c5-30,22.002-25,32.002,10
		c11.992,40.996-27.002,117.998-73.008,143.994c-35.996,22.002-107.998,25-142.998,6.006c-85-43.008-117.998-119.004-117.998-270
		c0-168.008-29.004-243.008-107.002-275c-45.996-20-128.994-18.008-163.994,2.998c-45,27.002-81.006,85.996-87.002,142.998
		c-4.004,45.996-2.002,52.002,30.996,85c44.004,44.004,82.998,47.002,121.006,9.004c33.994-35,35.996-97.002,3.994-131.006
		L2257.002,640h22.002c31.992,0,77.998,50,86.992,94.004c15,85-32.998,151.992-127.998,176.992
		c-82.998,23.008-173.994-25-220-113.994l-20-40l-16.997,38.994C1958.999,844.004,1903.999,894.004,1855,910
		c-77.002,25-186.001-20-215-89.004c-21.001-50.996-7.998-120,28.999-152.998c17.002-15,41.001-27.998,53.003-27.998h20.996
		l-20.996,22.998c-32.002,34.004-30,100,2.998,132.002c32.002,32.998,75,32.002,113.999-0.996C1900,742.998,1890,650,1815,580.996
		c-41.001-37.998-48.999-40.996-98.999-40.996c-63.003,0-101.001,12.002-135,42.998C1537.998,622.002,1527.002,665.996,1520,820
		c-7.002,150.996-16.001,187.002-63.999,237.998c-48.999,55-137.002,71.006-198.003,35c-60.996-35-95-125-63.999-167.998
		c12.002-17.002,13.999-15.996,25,17.998C1235,989.004,1272.998,1020,1315,1020c46.001,0,75-27.002,81.001-75
		c6.997-52.998-23.003-100-78.999-125c-77.002-35.996-148.003-20.996-204.004,42.998c-45.996,52.998-57.998,97.998-42.998,164.004
		c15,70,56.001,122.002,163.999,208.994c98.003,78.008,125,117.002,126.001,184.004c0,82.998-65,150-145,150
		c-48.999,0-77.998-17.998-95-60c-16.001-40-6.001-49.004,22.998-22.002c44.004,41.001,109.004,23.003,123.003-33.994
		c13.999-55-63.003-112.002-126.001-94.004c-81.001,22.998-120,75.996-120,161.001c0,100,66.001,163.999,170,162.998
		c73.999,0,107.998-20,216.001-125c62.998-61.001,108.999-96.997,150-116.001c125-57.998,271.001-25.996,307.998,67.002
		c42.002,105-3.999,187.002-152.998,273.999c-63.999,36.001-76.001,53.003-67.002,90c5,21.001,16.001,28.999,51.001,38.003
		c52.002,13.999,57.002,23.999,15,32.998c-72.998,16.001-150-32.002-150-92.002c0-50.996,37.002-95,121.001-143.999
		c96.997-56.001,131.001-116.001,93.999-165c-13.999-18.999-13.999-18.999-15,1.001c-1.001,38.999-37.998,102.002-71.001,122.998
		c-18.999,11.001-51.997,24.004-73.999,28.003l-40,6.997l47.998-42.998c52.002-46.001,83.003-95,67.002-105
		c-5-2.998-32.002,15-60,41.001c-52.002,48.999-60,46.997-35-12.002c10-25,26.001-40,57.002-53.999
		c41.997-18.999,41.997-20,12.998-20c-45,0-133.999,57.002-172.998,112.002c-49.004,68.999-74.004,147.998-80,253.999
		c-20,367.998,265,656.001,627.998,636.001C2070,2511.001,2130.996,2497.998,2175,2485z"/>
</g>
</svg>
