<?xml version="1.0" encoding="utf-8"?>
<!-- Generator: Adobe Illustrator 16.0.0, SVG Export Plug-In . SVG Version: 6.00 Build 0)  -->
<!DOCTYPE svg PUBLIC "-//W3C//DTD SVG 1.1//EN" "http://www.w3.org/Graphics/SVG/1.1/DTD/svg11.dtd">
<svg version="1.1" id="Layer_1" xmlns="http://www.w3.org/2000/svg" xmlns:xlink="http://www.w3.org/1999/xlink" x="0px" y="0px"
	 width="500px" height="500px" viewBox="0 0 500 500" enable-background="new 0 0 500 500" xml:space="preserve">
<g>
	<g>
		<g>
			<g>
				<g>
					<path d="M366.938,205.787c-17.902-47.193-63.554-80.828-116.938-80.828c-53.38,0-99.036,33.635-116.938,80.828
						c-5.22,13.753-8.102,28.648-8.102,44.213c0,13.978,2.341,27.412,6.59,39.976c16.716,49.392,63.485,85.065,118.45,85.065
						c54.969,0,101.734-35.674,118.444-85.065c4.249-12.562,6.594-25.998,6.594-39.976
						C375.039,234.436,372.158,219.54,366.938,205.787z M362.069,289.976c-16.461,46.008-60.469,79.022-112.068,79.022
						c-51.598,0-95.611-33.016-112.07-79.022c-4.474-12.501-6.928-25.956-6.928-39.976c0-15.623,3.057-30.537,8.553-44.213
						c17.592-43.781,60.453-74.78,110.445-74.78c49.993,0,92.854,30.999,110.441,74.78c5.494,13.676,8.553,28.591,8.553,44.213
						C368.995,264.02,366.542,277.475,362.069,289.976z"/>
				</g>
			</g>
		</g>
	</g>
	<g>
		<path d="M312.065,181.715c0.833,0.834,1.658,1.663,2.485,2.494c1.402-2.209,3.471-4.419,4.158-6.629
			C316.491,178.447,314.28,180.607,312.065,181.715z"/>
		<path d="M246.027,244.143c17.909-17.862,35.821-35.722,53.724-53.588c0.558-0.614,1.107-1.229,1.661-0.822
			c0.686,2.833,4.23,4.224,5.388,6.231c-19.93,19.873-39.859,39.746-59.785,59.621l1.062-0.972
			c-20.979,20.927-41.957,41.839-62.929,62.757c-2.072-2.074-4.139-4.151-6.22-6.222c22.722-22.662,45.445-45.315,68.164-67.977"/>
		<path d="M177.272,312.81c-1.11,1.101-2.219,2.2-3.325,3.306c2.21,1.834,4.416,5.299,6.633,5.811
			c0.963-0.965,1.939-1.924,2.903-2.899C181.416,316.957,179.34,314.879,177.272,312.81z"/>
		<g>
			<path d="M185.84,184.3c0.836-0.833,1.663-1.658,2.494-2.483c-2.207-1.405-4.418-3.473-6.627-4.16
				C182.572,179.875,184.733,182.086,185.84,184.3z"/>
			<path d="M248.268,250.337c-17.861-17.909-35.721-35.82-53.587-53.723c-0.614-0.559-1.229-1.107-0.822-1.66
				c2.833-0.688,4.224-4.231,6.231-5.388c19.872,19.93,39.746,39.857,59.622,59.786l-0.973-1.062
				c20.928,20.978,41.839,41.957,62.758,62.93c-2.076,2.071-4.152,4.136-6.223,6.218c-22.663-22.722-45.317-45.445-67.978-68.163"/>
			<path d="M316.935,319.093c1.1,1.112,2.202,2.218,3.308,3.327c1.834-2.211,5.298-4.417,5.811-6.633
				c-0.964-0.965-1.925-1.94-2.899-2.904C321.08,314.95,319.004,317.024,316.935,319.093z"/>
		</g>
	</g>
</g>
</svg>
